# Blender v2.69 (sub 0) OBJ File: 'foot.blend'
# www.blender.org
mtllib foot.mtl
o Cube
v -0.057249 0.073234 0.341658
v -0.495413 0.999625 0.158213
v -0.031107 0.956698 0.274726
v -0.284503 0.634057 0.042804
v 0.757761 -0.045154 0.143532
v 0.853209 0.441110 0.154752
v 0.736174 0.264500 0.494303
v -0.052348 -0.003616 0.220827
v 0.748356 0.534704 0.035134
v -0.171094 0.690250 0.037205
v -0.019525 0.632798 -0.221282
v 0.607532 -0.027198 0.397746
v 0.210207 -0.076210 -0.127285
v -0.447887 0.027658 -0.289918
v -0.463354 0.949641 0.331585
v -0.300011 0.098675 0.344719
v 0.828984 0.308211 -0.186783
v -0.514330 1.008424 0.255728
v 0.046701 0.752876 -0.129140
v 0.747457 0.020100 0.373368
v -0.312707 0.002587 0.257219
v -0.568253 0.602254 -0.189544
v -0.367557 -0.062895 -0.150624
v 0.690883 0.508499 -0.165419
v -0.134964 0.782992 -0.206243
v 0.259940 0.006723 0.380215
v 0.656652 -0.059732 -0.100055
v 0.774376 0.033757 -0.130687
v -0.609159 0.025770 -0.164885
v -0.653411 0.077529 -0.040747
v -0.636032 0.340869 -0.196459
v -0.100126 0.048041 -0.223940
v 0.613022 0.320675 0.497162
v -0.041737 -0.044961 0.098336
v 0.319319 0.577451 -0.125480
v 0.143224 0.657324 0.061123
v -0.262257 0.686249 -0.029358
v -0.296942 1.020257 -0.101618
v -0.473732 1.033291 -0.109307
v -0.571042 0.890698 0.229645
v -0.307887 0.386205 -0.263736
v 0.277470 0.252582 -0.282382
v -0.177345 0.773509 0.397189
v -0.061138 0.887458 0.352347
v -0.155039 1.063530 0.231271
v -0.328646 1.057638 0.299688
v -0.253244 0.692824 0.140531
v -0.427921 1.024941 0.219064
v 0.755634 0.122168 0.462404
v 0.893644 0.293148 0.221899
v 0.827898 0.273334 0.409044
v -0.638402 0.519915 -0.088835
v -0.592782 0.914879 -0.174289
v 0.324673 0.529516 -0.210670
v 0.257688 0.432677 -0.267477
v -0.144314 1.027930 0.078778
v 0.200718 -0.099260 -0.034926
v 0.306611 -0.088946 -0.067488
v 0.769213 0.157654 -0.245803
v 0.573944 0.189059 -0.331204
v 0.683360 0.180380 -0.318244
v -0.546720 -0.031622 0.019898
v -0.687900 0.222048 -0.008789
v -0.558414 0.015991 0.118670
v -0.500462 0.059395 0.237122
v -0.623459 0.167849 0.134187
v -0.502330 0.328610 0.308511
v -0.617207 0.432378 0.141710
v -0.446701 0.576611 0.327562
v -0.321980 0.585021 -0.255703
v -0.119532 0.144238 -0.252560
v 0.315280 -0.000452 -0.199729
v -0.315546 0.762867 0.385295
v 0.180099 0.566146 0.427630
v -0.482498 0.953581 0.008233
v 0.867567 0.378556 -0.032795
v -0.571096 0.985674 0.098908
v 0.757168 0.379089 0.457301
v -0.505485 0.501886 -0.228201
v -0.531344 0.162662 -0.300156
v 0.515629 0.523540 0.379082
v 0.653240 0.367685 -0.320949
v -0.188593 1.037708 -0.047869
v -0.424889 0.956741 -0.254333
v 0.858444 0.065696 0.105121
v 0.649308 -0.002808 -0.219126
v -0.521943 0.010896 -0.248971
v -0.693120 0.199555 -0.143978
v 0.166131 0.362261 -0.270215
v -0.277838 0.989015 0.342125
v -0.515056 0.904200 -0.249715
v -0.462051 -0.067038 -0.068459
v -0.321762 -0.077531 0.016045
v -0.080173 -0.049449 -0.075767
v 0.190620 0.650498 0.378247
v 0.287877 0.558363 0.042517
v -0.403171 1.052988 -0.192084
v 0.611007 0.088135 0.480008
v 0.627503 -0.090940 0.080838
v 0.883211 0.186727 -0.037564
v -0.071407 0.204836 0.399909
v 0.185509 0.406225 0.446877
v -0.627675 0.148188 -0.277775
v -0.634079 0.844057 0.049396
v -0.382109 -0.055391 0.149581
v -0.243426 1.031124 0.212223
v 0.847423 0.112308 0.306602
v 0.828744 0.409084 0.330423
v -0.356920 0.186415 0.371902
v -0.570266 0.996345 -0.092964
v -0.084326 -0.007807 -0.178848
v 0.159134 -0.083596 0.120214
v 0.443275 0.463855 0.455355
v 0.925506 0.399711 0.277000
v 0.740639 0.475459 0.378563
v 0.340814 0.610283 0.293779
v 0.123859 0.746541 0.278221
v 0.930830 0.410413 0.030468
v -0.047047 1.010062 0.043778
v -0.208003 1.005052 -0.151362
v 0.169513 -0.059201 0.222051
v 0.610291 -0.069856 0.297614
v 0.575323 0.292282 -0.350522
v 0.220411 0.123934 -0.250311
vt 0.268955 0.545046
vt 0.227506 0.607017
vt 0.232335 0.542004
vt 0.130342 0.848586
vt 0.106629 0.827401
vt 0.130342 0.780056
vt 0.526747 0.082862
vt 0.531247 0.163859
vt 0.420519 0.142341
vt 0.052326 0.657363
vt 0.037420 0.628385
vt 0.091605 0.632632
vt 0.198496 0.488550
vt 0.206842 0.389361
vt 0.233015 0.500209
vt 0.473712 0.292396
vt 0.461249 0.308345
vt 0.397547 0.193782
vt 0.796689 0.230222
vt 0.773252 0.288528
vt 0.759128 0.166064
vt 0.800864 0.720901
vt 0.788357 0.622050
vt 0.856420 0.683460
vt 0.533969 0.843708
vt 0.518776 0.727712
vt 0.555152 0.791111
vt 0.542261 0.424424
vt 0.559104 0.371554
vt 0.345007 0.126736
vt 0.314758 0.107509
vt 0.360739 0.050507
vt 0.313521 0.708029
vt 0.250619 0.798291
vt 0.252739 0.725726
vt 0.534547 0.537479
vt 0.565500 0.526425
vt 0.526452 0.557450
vt 0.130342 0.674255
vt 0.062364 0.692214
vt 0.940128 0.436735
vt 0.977384 0.436013
vt 0.963587 0.469711
vt 0.397573 0.116960
vt 0.454088 0.076571
vt 0.436430 0.845385
vt 0.436582 0.753131
vt 0.486380 0.833584
vt 0.378688 0.777902
vt 0.410999 0.589515
vt 0.062120 0.201928
vt 0.028717 0.124380
vt 0.104313 0.165294
vt 0.002020 0.627235
vt 0.020979 0.603022
vt 0.274192 0.496404
vt 0.255814 0.452879
vt 0.338257 0.453727
vt 0.816767 0.559545
vt 0.860116 0.610024
vt 0.763802 0.573536
vt 0.000000 0.703378
vt 0.009835 0.674255
vt 0.009835 0.738198
vt 0.544535 0.044611
vt 0.473162 0.613083
vt 0.554002 0.588567
vt 0.348537 0.702897
vt 0.334076 0.605050
vt 0.276676 0.625695
vt 0.338913 0.810099
vt 0.306806 0.809635
vt 0.143246 0.294208
vt 0.173643 0.294483
vt 0.901830 0.389746
vt 0.677144 0.442130
vt 0.646866 0.462323
vt 0.656988 0.321097
vt 0.197433 0.961618
vt 0.170886 1.009432
vt 0.160683 0.961903
vt 0.254310 1.009278
vt 0.378688 0.960954
vt 0.349059 1.006281
vt 0.338571 0.968026
vt 0.666247 0.496314
vt 0.607441 0.523134
vt 0.331056 0.516897
vt 0.366706 0.504217
vt 0.363126 0.546070
vt 0.265688 0.051198
vt 0.323102 0.000000
vt 0.607665 0.362643
vt 0.618073 0.308126
vt 0.715316 0.450214
vt 0.303117 0.573784
vt 0.130342 0.538496
vt 0.105328 0.535138
vt 0.189210 0.632554
vt 0.190423 0.564163
vt 0.207962 0.723818
vt 0.162791 0.722905
vt 0.004715 0.103256
vt 0.037136 0.514526
vt 0.037731 0.542683
vt 0.000000 0.566060
vt 0.024212 0.036183
vt 0.044941 0.059294
vt 0.833827 0.530719
vt 0.877415 0.555280
vt 0.811503 0.316242
vt 0.793355 0.395502
vt 0.819605 0.388693
vt 0.214124 0.803764
vt 0.158198 0.837740
vt 0.661735 0.199930
vt 0.711883 0.195973
vt 0.699799 0.321824
vt 0.713651 0.758178
vt 0.592040 0.743652
vt 0.708551 0.714325
vt 0.643861 0.648877
vt 0.685409 0.526425
vt 0.685409 0.651018
vt 0.136445 1.011666
vt 0.320306 0.845966
vt 0.677920 0.526425
vt 0.735142 0.514363
vt 0.500480 0.408870
vt 0.943825 0.082857
vt 0.945409 0.217307
vt 0.870730 0.073992
vt 0.713651 0.658940
vt 0.114468 0.502856
vt 0.582182 0.658940
vt 0.649520 0.528700
vt 0.676031 0.016081
vt 0.642784 0.000000
vt 0.709793 0.003624
vt 0.378688 0.448785
vt 0.324253 0.502856
vt 0.275021 0.963000
vt 0.749900 0.760110
vt 0.737869 0.700934
vt 0.230461 0.299336
vt 0.582182 0.858401
vt 0.541286 0.897791
vt 0.458310 0.558473
vt 0.066530 0.016074
vt 0.840313 0.439169
vt 0.893587 0.425926
vt 0.109738 0.116353
vt 0.072258 0.521726
vt 0.904056 0.595413
vt 0.735142 0.630731
vt 0.118229 0.674255
vt 0.130342 0.646780
vt 0.556715 0.695238
vt 0.777760 0.010854
vt 0.823980 0.034363
vt 0.749810 0.085011
vt 0.497630 0.267440
vt 0.887433 0.233039
vt 0.587078 0.120238
vt 0.683299 0.136168
vt 0.713651 0.734924
vt 0.733068 0.658940
vt 0.733068 0.752637
vt 0.945216 0.016060
vt 1.000000 0.075954
vt 0.975145 0.207467
vt 0.735142 0.070783
vt 0.364442 0.843357
vt 0.904056 0.680321
vt 0.893291 0.764514
vt 0.851057 0.766734
vt 0.350981 0.211739
vt 0.304837 0.208868
vt 0.284635 0.502856
vt 0.441681 0.893243
vt 0.496925 0.881477
vt 0.177100 0.069043
vt 0.863645 0.799802
vt 0.799112 0.794308
vt 0.378688 0.175495
vt 1.000000 0.505227
vt 0.973718 0.530719
vt 0.887104 0.292343
vt 0.582182 0.587385
vt 0.735142 0.188108
vt 0.864514 0.000000
vt 0.370878 0.325768
vt 0.018975 0.763352
vt 0.404083 0.543999
vt 0.000000 0.159735
vt 0.044105 0.829645
vt 0.018975 0.798000
vt 0.044105 0.780056
vt 0.958427 0.326444
vt 0.401290 0.872069
vt 0.378688 0.118034
vt 0.155596 0.636512
vt 0.696326 0.666397
vt 0.582182 0.706495
vt 0.713651 0.879259
vt 0.648386 0.762615
vt 0.623957 0.773258
vt 0.729148 0.650046
vt 0.685409 0.561033
vt 0.729148 0.526425
vt 0.790460 0.532591
vt 0.614071 0.758178
vt 0.614071 0.819854
vt 0.582182 0.781292
vt 0.378688 0.570771
vt 0.184248 0.409348
vt 0.889416 0.015899
vn -0.403655 -0.841935 0.358062
vn 0.147629 -0.934782 0.323092
vn -0.052002 0.211011 -0.976099
vn 0.050360 0.955961 -0.289142
vn 0.168409 0.640830 0.748983
vn 0.184109 -0.585411 -0.789555
vn 0.356166 0.913078 0.198580
vn 0.985458 -0.167418 0.029044
vn -0.896612 0.219354 -0.384669
vn 0.011028 -0.369440 -0.929189
vn -0.342690 -0.473624 0.811323
vn -0.195610 -0.978293 0.068401
vn -0.369847 0.924187 -0.095348
vn 0.864835 0.456194 -0.209636
vn -0.004765 0.953897 -0.300095
vn -0.559598 0.301520 -0.771969
vn -0.910247 0.009743 0.413951
vn -0.830065 -0.023293 0.557180
vn 0.088632 0.285179 0.954367
vn -0.240385 0.961468 -0.133395
vn -0.010366 -0.073474 0.997243
vn 0.942569 -0.090292 0.321575
vn 0.919137 0.193126 0.343351
vn 0.483887 0.007612 0.875098
vn -0.372979 0.121051 -0.919909
vn -0.941565 0.329586 -0.069482
vn 0.140720 -0.915991 -0.375710
vn 0.115500 -0.993307 0.000106
vn -0.133173 -0.958297 -0.252846
vn 0.100705 0.493275 0.864024
vn 0.388950 0.855119 -0.342768
vn -0.319000 -0.170227 -0.932342
vn 0.354818 -0.856567 0.374695
vn 0.422153 -0.866910 0.265056
vn 0.505026 -0.766160 -0.397427
vn 0.064949 -0.484185 -0.872552
vn -0.612936 -0.583755 -0.532485
vn -0.720619 -0.182379 0.668914
vn -0.031002 0.079058 -0.996388
vn -0.054967 0.413292 -0.908938
vn -0.251028 -0.957332 0.143178
vn 0.085775 0.287877 0.953818
vn 0.678006 0.480332 0.556407
vn -0.290762 -0.751471 0.592241
vn 0.055074 -0.841502 0.537439
vn 0.267027 0.642102 0.718611
vn -0.213546 0.857532 -0.468014
vn -0.332767 0.623916 0.707103
vn 0.682764 -0.069655 0.727311
vn 0.834246 -0.220394 0.505431
vn 0.648548 0.716987 0.255569
vn 0.609203 0.459960 0.645994
vn -0.215915 -0.851266 0.478254
vn 0.185098 0.531962 -0.826290
vn -0.942611 0.033861 0.332172
vn -0.460652 0.189133 0.867196
vn 0.335736 -0.634335 0.696348
vn -0.038483 -0.995716 0.084070
vn 0.485896 -0.484070 -0.727723
vn 0.618702 0.061403 -0.783222
vn 0.322120 0.038137 -0.945930
vn -0.946079 0.033477 0.322200
vn -0.026334 -0.671568 -0.740475
vn 0.098096 0.384336 0.917967
vn -0.026146 -0.996426 -0.080318
vn 0.161663 0.971516 -0.173271
vn -0.991816 0.089826 -0.090726
vn -0.374579 0.802289 0.464783
vn -0.027132 0.208680 0.977608
vn -0.365613 0.562245 -0.741760
vn 0.230093 -0.569691 0.788992
vn 0.067404 -0.984964 -0.159065
vn 0.372149 -0.922852 -0.099242
vn 0.956672 0.084943 -0.278503
vn -0.058833 0.117321 0.991350
vn -0.877319 -0.390262 -0.279296
vn -0.915831 0.324704 0.236264
vn -0.729985 0.207369 0.651244
vn 0.077794 -0.942548 0.324887
vn 0.312286 0.645705 0.696809
vn 0.099274 0.970528 -0.219589
vn -0.037865 0.118142 0.992275
vn -0.043804 0.943430 -0.328665
vn -0.428270 0.828354 -0.361129
vn 0.648534 0.542673 -0.533769
vn 0.163476 -0.194417 0.967201
vn 0.747257 -0.469827 0.469968
vn 0.921724 0.338116 0.190005
vn -0.131501 -0.013590 0.991223
vn -0.349509 0.935570 0.050519
vn -0.996288 -0.022180 0.083173
vn -0.806626 -0.034494 -0.590055
vn -0.915923 0.400935 0.018337
vn 0.409229 0.910029 0.066165
vn 0.114616 -0.004484 -0.993400
vn -0.236662 -0.939120 0.249086
vn 0.053289 0.983843 0.170920
vn 0.085866 0.164389 -0.982651
vn 0.801519 0.592382 0.081560
vn 0.661045 0.148048 -0.735596
vn 0.626659 0.496188 -0.600913
vn 0.125647 0.720111 -0.682387
vn -0.070686 0.130368 -0.988943
vn 0.184608 0.982747 0.011325
vn 0.414590 0.344527 -0.842269
vn -0.048433 -0.654411 -0.754586
vn 0.758541 -0.624523 0.185976
vn 0.020706 -0.970530 -0.240088
vn 0.601094 -0.791979 -0.107026
vn -0.062850 -0.409602 0.910097
vn 0.101184 -0.184317 -0.977645
vn -0.129494 -0.065552 0.989411
vn -0.075875 0.195543 0.977755
vn -0.478289 -0.871407 -0.109038
vn -0.754952 -0.621221 0.210074
vn -0.847247 -0.398759 0.350946
vn -0.965623 -0.247807 0.078512
vn -0.530160 0.053918 0.846182
vn -0.192938 -0.155929 -0.968742
vn -0.119376 -0.450775 -0.884620
vn -0.049086 -0.994472 0.092824
vn 0.585775 -0.538431 -0.605773
vn -0.354006 -0.445187 -0.822489
vn -0.098441 0.203016 0.974214
vn -0.588181 -0.057133 -0.806709
vn 0.333353 0.445019 0.831164
vn 0.058588 0.958768 0.278084
vn 0.993811 0.082886 -0.073957
vn 0.515752 0.807630 -0.285890
vn -0.822621 0.003274 0.568581
vn -0.028784 -0.632862 -0.773729
vn -0.400130 -0.779780 0.481497
vn -0.143968 0.441194 0.885789
vn -0.128386 -0.071852 0.989118
vn -0.160756 0.028465 -0.986584
vn -0.877446 0.238536 -0.416159
vn -0.984450 0.079856 -0.156467
vn -0.697677 -0.019793 -0.716139
vn 0.058484 -0.980243 0.188953
vn -0.181500 -0.982093 0.050511
vn 0.151889 0.703324 0.694454
vn 0.183144 0.851787 0.490834
vn 0.454776 0.774341 0.439971
vn 0.559348 0.815635 0.147882
vn -0.045900 -0.009025 -0.998905
vn -0.088743 -0.917241 0.388321
vn 0.735906 -0.641956 0.215254
vn 0.226410 -0.952209 0.205029
vn -0.171311 -0.377005 0.910231
vn -0.985966 0.166623 0.010344
vn -0.675878 -0.038110 0.736027
vn -0.099387 0.201557 0.974421
vn -0.123162 -0.055915 -0.990810
vn 0.876728 0.467319 -0.113842
vn 0.728237 0.540751 0.421022
vn 0.965955 0.258421 -0.012241
vn -0.251932 0.219148 -0.942605
vn -0.889744 0.369122 0.268523
vn -0.097572 0.989329 -0.108207
vn -0.016626 -0.059044 -0.998117
vn 0.001644 -0.082856 -0.996560
vn 0.042050 -0.890697 0.452648
vn 0.263479 0.638043 0.723519
vn -0.230704 0.967002 -0.108086
vn 0.677901 0.531360 0.508042
vn -0.412929 0.008479 0.910724
vn -0.236268 -0.918172 -0.318021
vn 0.499575 0.768000 -0.400751
vn 0.034913 -0.900813 -0.432802
vn 0.656515 0.094764 -0.748337
vn -0.723072 -0.690122 0.029981
vn -0.767501 -0.381390 0.515251
vn -0.559930 -0.215995 0.799890
vn -0.010814 -0.287142 -0.957827
vn -0.268402 -0.628962 0.729635
vn 0.149270 0.278976 0.948626
vn 0.194543 -0.243446 -0.950204
vn -0.135302 -0.985514 0.102253
vn 0.570699 0.797086 0.197377
vn 0.109467 0.869191 -0.482208
vn 0.533824 0.832658 0.147353
vn -0.589189 0.111935 0.800205
vn 0.289761 0.472821 -0.832153
vn -0.504416 0.614332 -0.606763
vn -0.097144 -0.575999 0.811658
vn 0.874321 -0.168710 -0.455082
vn -0.194429 -0.193127 -0.961717
vn -0.858829 0.167112 -0.484238
vn -0.237577 -0.134454 -0.962018
vn -0.060612 -0.667666 0.741989
vn 0.619066 0.773474 0.135996
vn -0.771651 0.153214 -0.617317
vn -0.043213 0.208319 -0.977106
vn 0.504207 0.440787 -0.742618
vn 0.851030 0.518066 -0.085761
vn 0.974232 -0.202140 0.100058
vn 0.670490 0.113894 0.733124
vn 0.799903 0.297027 0.521468
vn -0.204878 -0.957486 -0.203089
vn -0.964488 0.205022 0.166518
vn 0.116685 0.045004 -0.992149
vn -0.086528 -0.857334 -0.507436
vn 0.099022 -0.807231 -0.581870
vn 0.074387 -0.991418 -0.107501
vn -0.149468 -0.918861 -0.365177
vn -0.211404 -0.931470 0.296096
vn 0.246500 0.635842 0.731398
vn 0.539180 0.801306 -0.259217
vn 0.721624 0.543331 -0.429010
vn 0.153305 0.418954 -0.894972
vn 0.620750 0.580543 -0.526915
vn 0.413476 0.399713 -0.818088
vn 0.343765 0.330320 -0.879042
vn -0.109160 -0.893812 0.434953
vn 0.279732 -0.953176 0.114916
vn 0.137349 -0.981158 0.135879
vn 0.854116 -0.460266 -0.242161
vn 0.841946 -0.348016 -0.412325
vn -0.053195 -0.519176 -0.853010
vn -0.194966 -0.414453 0.888942
vn -0.089515 -0.116492 0.989149
vn -0.393196 -0.884423 -0.251383
vn -0.897494 -0.415986 -0.146495
vn -0.909875 -0.284018 0.302426
vn -0.386503 0.015859 0.922152
vn -0.370893 -0.026569 0.928296
vn 0.074674 0.226886 -0.971054
vn -0.011660 0.039541 -0.999150
vn -0.534304 0.666571 -0.519810
vn 0.218836 0.971184 0.094407
vn -0.148491 0.065355 -0.986752
vn -0.029721 0.520969 -0.853058
vn -0.235438 -0.824373 0.514761
vn 0.052884 0.991058 0.122505
vn 0.022445 0.460401 -0.887427
vn -0.085646 -0.001371 0.996325
vn 0.672615 0.588180 0.449036
vn 0.554764 0.817720 0.153531
vn 0.357658 0.896739 -0.260652
vn 0.197209 0.058204 -0.978632
vn 0.085935 -0.937163 -0.338142
vn 0.676153 -0.696937 -0.238949
vn -0.020265 -0.307840 0.951222
vn 0.525217 0.804649 -0.276924
usemtl foot.png
s off
f 62/1/1 105/2/1 64/3/1
f 76/4/2 118/5/2 6/6/2
f 79/7/3 41/8/3 80/9/3
f 77/10/4 2/11/4 75/12/4
f 115/13/5 113/14/5 78/15/5
f 32/16/6 111/17/6 14/18/6
f 116/19/7 95/20/7 81/21/7
f 100/22/8 50/23/8 85/24/8
f 88/25/9 52/26/9 31/27/9
f 72/28/10 32/16/10 124/29/10
f 16/30/11 109/31/11 65/32/11
f 94/33/12 112/34/12 34/35/12
f 39/36/13 97/37/13 110/38/13
f 19/39/14 119/6/14 36/40/14
f 83/41/15 120/42/15 38/43/15
f 103/44/16 31/45/16 79/7/16
f 66/46/17 68/47/17 63/48/17
f 67/49/18 40/50/18 68/47/18
f 44/51/19 90/52/19 43/53/19
f 2/11/20 18/54/20 48/55/20
f 7/56/21 33/57/21 98/58/21
f 50/23/22 51/59/22 107/60/22
f 50/23/23 108/61/23 51/59/23
f 108/62/24 114/63/24 115/64/24
f 31/45/25 22/65/25 79/7/25
f 104/66/26 110/38/26 53/67/26
f 111/68/27 94/33/27 23/69/27
f 94/33/28 34/35/28 93/70/28
f 13/71/29 57/72/29 94/33/29
f 95/73/30 74/74/30 113/14/30
f 120/42/31 83/41/31 119/75/31
f 123/76/32 60/77/32 55/78/32
f 122/79/33 20/80/33 12/81/33
f 5/82/34 20/80/34 122/79/34
f 86/83/35 28/84/35 27/85/35
f 60/77/36 61/86/36 86/87/36
f 29/88/37 103/89/37 87/90/37
f 65/32/38 67/91/38 66/92/38
f 42/93/39 89/94/39 55/78/39
f 82/95/40 123/76/40 55/78/40
f 92/96/41 105/2/41 62/1/41
f 74/74/42 44/51/42 43/53/42
f 37/97/43 75/12/43 4/98/43
f 105/2/44 21/99/44 65/100/44
f 8/101/45 1/102/45 21/99/45
f 44/51/46 46/103/46 90/52/46
f 45/104/47 106/105/47 46/106/47
f 46/103/48 18/107/48 15/108/48
f 51/59/49 7/109/49 49/110/49
f 107/60/50 51/59/50 49/110/50
f 117/111/51 44/112/51 95/20/51
f 117/111/52 3/113/52 44/112/52
f 121/114/53 26/115/53 8/101/53
f 11/116/54 19/117/54 54/118/54
f 83/119/55 10/120/55 56/121/55
f 38/122/56 10/123/56 83/124/56
f 20/80/57 49/125/57 12/81/57
f 58/126/58 122/79/58 121/114/58
f 61/86/59 59/127/59 86/87/59
f 59/127/60 82/95/60 17/128/60
f 61/86/61 123/76/61 82/95/61
f 40/50/62 104/66/62 68/47/62
f 72/28/63 13/129/63 111/17/63
f 78/15/64 113/14/64 33/57/64
f 23/69/65 93/70/65 92/96/65
f 24/130/66 35/131/66 9/132/66
f 45/133/67 56/121/67 10/120/67
f 10/134/68 37/97/68 4/98/68
f 38/122/69 39/135/69 37/136/69
f 84/137/70 91/138/70 97/139/70
f 12/140/71 49/141/71 98/58/71
f 27/85/72 99/142/72 58/126/72
f 27/85/73 5/82/73 99/142/73
f 17/143/74 76/144/74 100/22/74
f 113/14/75 74/74/75 102/145/75
f 88/25/76 103/146/76 29/147/76
f 40/50/77 77/148/77 104/66/77
f 15/108/78 18/107/78 40/149/78
f 34/35/79 8/101/79 105/2/79
f 3/113/80 45/150/80 44/112/80
f 119/75/81 56/151/81 45/150/81
f 102/145/82 74/74/82 73/152/82
f 106/105/83 48/55/83 46/106/83
f 10/134/84 4/98/84 47/153/84
f 4/98/85 2/11/85 47/153/85
f 49/141/86 7/56/86 98/58/86
f 107/60/87 49/110/87 20/154/87
f 6/155/88 108/61/88 50/23/88
f 102/145/89 73/152/89 109/31/89
f 110/156/90 77/10/90 39/157/90
f 68/47/91 104/66/91 52/26/91
f 52/26/92 53/67/92 22/158/92
f 104/66/93 77/148/93 110/38/93
f 114/159/94 6/160/94 115/161/94
f 71/162/95 14/18/95 80/9/95
f 112/34/96 121/114/96 8/101/96
f 9/132/97 96/163/97 115/161/97
f 11/116/98 70/164/98 25/165/98
f 117/111/99 119/75/99 3/113/99
f 76/166/100 24/167/100 118/168/100
f 17/169/101 82/170/101 24/130/101
f 82/170/102 54/171/102 24/130/102
f 89/94/103 11/116/103 55/78/103
f 119/75/104 83/41/104 56/151/104
f 25/165/105 120/172/105 19/117/105
f 13/71/106 72/173/106 86/83/106
f 85/24/107 107/60/107 5/174/107
f 13/71/108 58/126/108 57/72/108
f 27/175/109 28/176/109 85/24/109
f 1/177/110 101/178/110 109/31/110
f 60/77/111 123/76/111 61/86/111
f 33/57/112 102/145/112 101/178/112
f 33/57/113 113/14/113 102/145/113
f 62/1/114 29/88/114 92/96/114
f 64/3/115 30/179/115 62/1/115
f 64/180/116 66/46/116 30/181/116
f 63/48/117 88/25/117 30/181/117
f 69/182/118 40/149/118 67/91/118
f 60/77/119 124/29/119 42/93/119
f 72/28/120 124/29/120 60/77/120
f 58/126/121 99/142/121 122/79/121
f 86/183/122 59/184/122 28/176/122
f 87/185/123 103/44/123 14/18/123
f 43/53/124 90/52/124 15/108/124
f 79/7/125 22/65/125 91/138/125
f 74/74/126 95/73/126 44/51/126
f 38/43/127 97/186/127 39/187/127
f 100/22/128 76/144/128 50/23/128
f 96/163/129 36/188/129 117/111/129
f 66/46/130 67/49/130 68/47/130
f 32/16/131 72/28/131 111/17/131
f 64/3/132 105/2/132 65/100/132
f 90/52/133 46/103/133 15/108/133
f 98/58/134 33/57/134 101/178/134
f 41/8/135 79/7/135 70/164/135
f 31/27/136 52/26/136 22/158/136
f 52/26/137 104/66/137 53/67/137
f 22/158/138 53/67/138 91/189/138
f 93/70/139 34/35/139 105/2/139
f 94/33/140 57/72/140 112/34/140
f 115/161/141 81/21/141 113/190/141
f 115/161/142 116/19/142 81/21/142
f 116/19/143 117/111/143 95/20/143
f 118/191/144 9/132/144 6/160/144
f 84/137/145 70/164/145 91/138/145
f 121/114/146 122/79/146 12/81/146
f 5/174/147 107/60/147 20/154/147
f 112/34/148 58/126/148 121/114/148
f 101/178/149 26/192/149 98/58/149
f 88/25/150 63/48/150 52/26/150
f 69/182/151 15/108/151 40/149/151
f 43/53/152 15/108/152 73/152/152
f 79/7/153 91/138/153 70/164/153
f 36/40/154 119/6/154 117/193/154
f 37/97/155 39/157/155 75/12/155
f 50/23/156 76/144/156 6/155/156
f 103/44/157 79/7/157 80/9/157
f 40/50/158 18/194/158 77/148/158
f 77/10/159 18/54/159 2/11/159
f 41/8/160 89/94/160 71/162/160
f 89/94/161 124/29/161 71/162/161
f 105/2/162 8/101/162 21/99/162
f 44/51/163 45/195/163 46/103/163
f 46/106/164 48/55/164 18/54/164
f 108/196/165 115/197/165 78/198/165
f 109/31/166 73/152/166 69/182/166
f 87/90/167 23/69/167 92/96/167
f 54/171/168 19/199/168 35/131/168
f 58/126/169 86/83/169 27/85/169
f 59/127/170 61/86/170 82/95/170
f 62/1/171 30/179/171 29/88/171
f 64/180/172 65/200/172 66/46/172
f 65/32/173 109/31/173 67/91/173
f 124/29/174 32/16/174 71/162/174
f 65/32/175 21/201/175 16/30/175
f 7/56/176 78/15/176 33/57/176
f 71/162/177 32/16/177 14/18/177
f 92/96/178 93/70/178 105/2/178
f 35/131/179 36/188/179 96/163/179
f 24/130/180 54/171/180 35/131/180
f 35/131/181 19/199/181 36/188/181
f 10/123/182 38/122/182 37/136/182
f 120/172/183 84/137/183 97/139/183
f 97/37/184 91/189/184 53/67/184
f 26/192/185 12/140/185 98/58/185
f 59/184/186 17/143/186 100/22/186
f 103/44/187 80/9/187 14/18/187
f 88/25/188 31/27/188 103/146/188
f 42/93/189 124/29/189 89/94/189
f 21/99/190 1/102/190 16/202/190
f 3/113/191 119/75/191 45/150/191
f 106/203/192 10/120/192 47/204/192
f 106/119/193 47/205/193 48/206/193
f 47/205/194 2/207/194 48/206/194
f 4/208/195 75/209/195 2/210/195
f 85/24/196 50/23/196 107/60/196
f 51/59/197 78/211/197 7/109/197
f 51/59/198 108/61/198 78/211/198
f 108/212/199 6/213/199 114/214/199
f 63/48/200 68/47/200 52/26/200
f 41/8/201 71/162/201 80/9/201
f 14/215/202 23/69/202 87/90/202
f 14/215/203 111/68/203 23/69/203
f 94/33/204 93/70/204 23/69/204
f 111/68/205 13/71/205 94/33/205
f 34/35/206 112/34/206 8/101/206
f 81/216/207 95/73/207 113/14/207
f 118/191/208 24/130/208 9/132/208
f 17/169/209 24/130/209 76/217/209
f 55/78/210 11/116/210 54/118/210
f 19/199/211 120/42/211 119/75/211
f 11/116/212 25/165/212 19/117/212
f 25/165/213 84/137/213 120/172/213
f 121/114/214 12/81/214 26/115/214
f 99/142/215 5/82/215 122/79/215
f 57/72/216 58/126/216 112/34/216
f 28/176/217 100/22/217 85/24/217
f 28/176/218 59/184/218 100/22/218
f 72/28/219 60/77/219 86/87/219
f 1/177/220 26/192/220 101/178/220
f 101/178/221 102/145/221 109/31/221
f 92/96/222 29/88/222 87/90/222
f 30/181/223 88/25/223 29/147/223
f 30/181/224 66/46/224 63/48/224
f 109/31/225 69/182/225 67/91/225
f 69/182/226 73/152/226 15/108/226
f 11/116/227 89/94/227 70/164/227
f 70/164/228 89/94/228 41/8/228
f 97/37/229 53/67/229 110/38/229
f 120/42/230 97/186/230 38/43/230
f 60/77/231 42/93/231 55/78/231
f 54/118/232 82/95/232 55/78/232
f 26/115/233 1/102/233 8/101/233
f 35/131/234 96/163/234 9/132/234
f 106/203/235 45/133/235 10/120/235
f 74/74/236 43/53/236 73/152/236
f 77/10/237 75/12/237 39/157/237
f 6/160/238 9/132/238 115/161/238
f 96/163/239 116/19/239 115/161/239
f 70/164/240 84/137/240 25/165/240
f 58/126/241 13/71/241 86/83/241
f 5/174/242 27/175/242 85/24/242
f 16/30/243 1/177/243 109/31/243
f 116/19/244 96/163/244 117/111/244
