# Blender v2.69 (sub 0) OBJ File: 'hand.blend'
# www.blender.org
mtllib hand.mtl
o Cube
v -0.298818 -0.693219 0.038834
v 0.394462 -1.194872 -0.084236
v 0.251939 -0.064136 0.069324
v -0.273345 -1.211900 -0.148376
v -0.261139 0.144994 0.081148
v -0.113536 -0.577901 0.137573
v 0.337243 -0.897453 0.053977
v 0.425924 -0.272997 -0.177376
v 0.053814 -0.226642 0.122220
v 0.248801 -1.341052 -0.363332
v 0.029870 -0.770056 -0.123898
v 0.276327 -0.328053 -0.189058
v -0.272485 -1.050144 -0.059058
v -0.173011 -0.954315 -0.102079
v -0.277198 -0.296692 0.089542
v 0.326001 -0.078889 -0.051577
v 0.143998 -1.047737 -0.144882
v 0.468044 -0.016471 -0.267909
v 0.223407 -0.979912 -0.146439
v 0.269596 0.293283 -0.010204
v 0.243731 -1.350178 -0.265584
v -0.410770 -0.335307 -0.205801
v -0.293147 -0.949129 -0.018417
v 0.298506 -0.725652 -0.232201
v 0.126060 0.016980 0.049705
v 0.343197 -0.042482 -0.314664
v 0.156848 -0.108803 -0.297630
v -0.006806 -0.557425 -0.237947
v -0.162836 -1.124194 -0.030953
v -0.179153 -0.522623 -0.196313
v -0.163728 -0.274979 0.118993
v -0.204478 -0.345589 -0.212231
v -0.225834 -1.180960 -0.079579
v -0.111418 -0.093623 0.165715
v -0.096485 -0.104376 -0.284977
v 0.156111 -0.336437 -0.319509
v -0.391181 -0.145548 -0.232613
v -0.267870 -0.003557 -0.030625
v 0.406914 0.141892 -0.128400
v 0.241468 -1.451303 -0.319297
v 0.241898 -0.449999 0.043982
v -0.107176 -1.501739 -0.127490
v 0.005412 -0.543676 -0.106181
v -0.107887 -1.103482 -0.194612
v -0.189461 -1.469003 -0.206663
v 0.294864 -0.852738 -0.133886
v -0.207887 -0.775988 -0.175491
v 0.085148 -0.020036 0.186033
v -0.149854 0.188165 0.041029
v -0.123729 -0.093860 0.150568
v -0.015336 -1.200573 -0.165935
v 0.030744 -0.978571 -0.018879
v 0.423135 0.226553 -0.028102
v 0.445854 0.080802 -0.011015
v -0.260974 -0.054382 -0.276817
v -0.142892 -0.328687 -0.310868
v 0.424115 -0.227616 -0.315542
v 0.203197 -0.477471 -0.121862
v -0.234238 -0.461189 0.035178
v 0.172772 -1.015309 0.012897
v 0.363050 -1.169319 0.009269
v 0.235415 -0.681317 0.054799
v 0.138529 -0.506905 0.125833
vt 0.912805 0.253207
vt 0.831338 0.073841
vt 0.914702 0.079288
vt 0.681513 0.300640
vt 0.751963 0.301350
vt 0.763279 0.390564
vt 0.620995 0.761113
vt 0.650147 0.844566
vt 0.602159 0.810561
vt 0.419520 0.396777
vt 0.349941 0.499729
vt 0.402665 0.329235
vt 0.668446 0.525648
vt 0.113296 0.407535
vt 0.208931 0.396309
vt 0.135417 0.484826
vt 0.942605 0.101039
vt 0.969878 0.060205
vt 0.985093 0.114866
vt 0.985093 0.000000
vt 0.185929 0.301825
vt 0.110128 0.299998
vt 0.302174 0.064902
vt 0.243542 0.195685
vt 0.228246 0.103573
vt 0.817408 0.226782
vt 0.355503 0.321616
vt 0.378375 0.264286
vt 0.885762 0.846292
vt 0.856088 0.707022
vt 0.955707 0.796599
vt 0.180020 0.861789
vt 0.051525 0.704818
vt 0.180020 0.711316
vt 0.348182 0.601139
vt 0.176596 0.535578
vt 0.275012 0.502928
vt 0.262084 0.266613
vt 0.572200 0.430869
vt 0.569869 0.584924
vt 0.500300 0.428493
vt 0.122251 0.116363
vt 0.118595 0.209251
vt 0.050429 0.105252
vt 0.098091 0.532998
vt 0.493045 0.353698
vt 0.303707 0.470594
vt 0.322989 0.355146
vt 0.081037 0.495657
vt 0.069539 0.890056
vt 0.000000 0.808487
vt 0.214439 0.897303
vt 0.243746 0.776086
vt 0.332045 0.827049
vt 0.705457 0.940858
vt 0.650147 0.899225
vt 0.751045 0.846292
vt 0.112542 0.592737
vt 0.979055 0.294686
vt 0.976579 0.350346
vt 0.945973 0.289097
vt 0.942605 0.170034
vt 0.942605 0.259860
vt 0.751045 0.986628
vt 0.756781 0.885827
vt 0.829720 0.970317
vt 1.000000 0.587566
vt 0.991995 0.772183
vt 0.955707 0.638671
vt 0.948083 0.961909
vt 0.922360 0.862894
vt 0.989371 0.968012
vt 0.817408 0.206142
vt 0.347572 0.136745
vt 0.349941 0.894785
vt 0.507235 0.665121
vt 0.423464 0.669131
vt 0.407737 0.584924
vt 0.829720 0.923845
vt 0.922360 0.846292
vt 0.922360 0.956216
vt 0.428829 0.833237
vt 0.349941 0.761401
vt 0.751045 0.964520
vt 0.507236 0.885150
vt 0.219721 0.572824
vt 0.166650 0.689606
vt 0.198870 0.704818
vt 0.432256 0.206919
vt 0.650147 0.584924
vt 0.955706 0.612932
vt 0.636536 0.564596
vt 0.989371 0.846292
vt 0.584189 0.686738
vt 0.597767 0.584924
vt 0.597767 0.764034
vt 0.206418 0.950395
vt 0.817408 0.575652
vt 0.887074 0.493734
vt 0.887074 0.587566
vt 0.631532 0.101994
vt 0.536603 0.243343
vt 0.565584 0.056202
vt 0.693860 0.203559
vt 0.650147 0.270940
vt 0.711491 0.113667
vt 0.650147 0.504608
vt 0.597767 0.863200
vt 0.589383 0.820893
vt 0.507236 0.797341
vt 0.553506 0.766354
vt 0.584189 0.856455
vt 0.858568 0.000000
vt 0.785763 0.146038
vt 0.829720 0.846292
vt 0.944374 0.568122
vt 0.971414 0.450736
vt 0.971414 0.587566
vt 0.832832 0.587566
vt 1.000000 0.819882
vt 0.956820 0.794282
vt 0.002608 0.234558
vt 0.000000 0.153249
vt 0.248063 0.704818
vt 0.463605 0.944580
vt 0.507236 0.979320
vt 0.986685 0.392265
vt 0.712633 0.752204
vt 0.650147 0.615339
vt 0.307463 0.000000
vt 0.349941 0.051104
vt 0.942605 0.179624
vt 0.799273 0.094011
vt 0.938848 0.492925
vt 0.817408 0.401447
vt 0.938848 0.392265
vt 0.856554 0.286337
vt 0.800987 0.786157
vt 0.349941 0.650374
vt 0.206418 0.918741
vt 0.181514 0.757155
vt 0.206418 0.704818
vt 0.542360 0.974276
vt 0.934467 0.392265
vt 0.817408 0.419577
vt 0.791591 0.000000
vt 0.750370 0.003781
vt 0.986685 0.157388
vt 0.650147 0.953674
vt 0.602509 0.912527
vt 0.650147 0.000000
vt 0.782760 0.503984
vt 0.664555 0.587566
vt 0.349941 1.030193
vt 0.944374 0.587566
vt 0.887074 0.503446
vt 0.944374 0.497473
vt 0.584189 0.584924
vn -0.328828 -0.251167 0.910378
vn 0.671274 -0.740430 -0.033997
vn -0.463433 0.546088 -0.697867
vn -0.554800 -0.053868 0.830238
vn 0.835600 -0.271599 0.477501
vn 0.207663 -0.337375 -0.918180
vn 0.238498 0.722753 -0.648650
vn 0.335863 0.692297 -0.638687
vn -0.244386 -0.051858 -0.968290
vn -0.124210 0.095334 -0.987666
vn 0.170606 -0.304487 0.937113
vn -0.172198 -0.349362 0.921029
vn -0.568989 0.119163 -0.813666
vn -0.058990 0.421862 0.904739
vn 0.024102 0.602661 -0.797633
vn 0.547898 -0.613729 -0.568458
vn 0.592874 0.146887 0.791786
vn -0.013574 0.117423 -0.992989
vn -0.570041 0.238802 -0.786146
vn 0.012417 -0.296804 0.954858
vn -0.002911 0.532029 0.846721
vn -0.335372 -0.210661 -0.918231
vn -0.882724 0.008462 -0.469816
vn 0.052258 0.465885 0.883301
vn -0.104317 0.099408 -0.989564
vn -0.629226 -0.775202 0.056000
vn -0.604150 0.776894 -0.177308
vn -0.490271 0.423291 -0.761878
vn -0.691965 -0.346142 0.633538
vn -0.367275 -0.335505 0.867493
vn -0.940449 0.339628 -0.014472
vn 0.888566 0.389647 -0.242127
vn -0.629123 -0.777305 0.001077
vn 0.851247 0.448229 -0.272891
vn 0.010937 0.009522 -0.999895
vn -0.832572 -0.357318 0.423258
vn 0.718807 -0.192839 -0.667929
vn -0.805140 -0.155311 0.572387
vn -0.035701 -0.322759 -0.945808
vn -0.110924 0.004452 -0.993819
vn 0.784256 -0.171274 0.596329
vn 0.277187 0.942481 -0.186805
vn 0.792814 0.457471 -0.402699
vn 0.268711 -0.028226 -0.962807
vn -0.330717 0.104728 -0.937901
vn 0.605543 -0.279766 -0.745016
vn -0.027397 0.056676 0.998017
vn -0.154310 0.856119 0.493203
vn -0.076542 -0.173140 -0.981918
vn 0.200115 0.203370 0.958434
vn -0.535223 -0.802852 0.262612
vn 0.552055 0.485199 -0.678098
vn -0.908144 0.149031 0.391234
vn -0.859948 0.232184 -0.454511
vn -0.083962 -0.221472 0.971545
vn 0.889129 0.418188 0.185925
vn 0.200721 0.073267 0.976905
vn 0.366797 0.024739 0.929972
vn 0.191885 -0.202605 0.960277
vn -0.307966 -0.480145 0.821351
vn -0.541364 0.163671 0.824704
vn 0.950502 -0.012118 0.310482
vn -0.256085 0.027674 0.966258
vn -0.324462 0.939618 0.108821
vn 0.067733 -0.469191 0.880496
vn 0.039532 0.024828 0.998910
vn -0.201539 -0.370791 -0.906585
vn 0.997752 -0.047466 0.047315
vn -0.249466 -0.110189 -0.962094
vn -0.294169 -0.444711 -0.845988
vn 0.308549 -0.738008 -0.600118
vn -0.254769 -0.490835 -0.833171
vn -0.963476 0.088496 -0.252751
vn 0.613980 0.019694 0.789076
vn -0.793141 -0.359913 0.491315
vn 0.278790 0.477507 -0.833224
vn 0.899764 0.424294 -0.101984
vn -0.027860 -0.385182 -0.922420
vn -0.182954 0.224430 0.957162
vn -0.506609 0.330434 -0.796342
vn 0.127151 0.682846 -0.719413
vn 0.955580 0.284727 0.076142
vn -0.363947 -0.041160 -0.930510
vn -0.319032 -0.437080 -0.840940
vn 0.483214 -0.324442 0.813168
vn -0.057078 0.311607 0.948495
vn 0.046056 0.541027 -0.839743
vn -0.680664 -0.365955 0.634644
vn 0.784412 -0.393421 -0.479497
vn 0.185223 -0.088114 -0.978738
vn -0.201128 -0.218097 0.954977
vn 0.043699 -0.261046 0.964337
vn 0.378868 -0.564443 0.733392
vn 0.988818 0.072485 0.130328
vn -0.493479 -0.118942 -0.861586
vn -0.555166 -0.276402 -0.784470
vn -0.714395 -0.697506 -0.055907
vn -0.082515 -0.647502 0.757583
vn -0.413702 -0.282305 0.865537
vn 0.619534 -0.743331 -0.252263
vn 0.954406 0.255415 -0.154507
vn 0.950406 0.039484 0.308496
vn 0.697175 0.432706 -0.571587
vn -0.475484 0.329154 -0.815826
vn -0.717677 -0.354956 0.599121
vn -0.683126 -0.068594 0.727072
vn 0.277445 0.154415 0.948251
vn -0.186427 0.502870 -0.844018
vn 0.320481 0.144516 -0.936166
vn -0.120763 -0.172235 0.977625
vn -0.026277 0.095728 -0.995061
vn 0.643310 -0.099269 0.759143
vn 0.979542 -0.187040 -0.074256
vn 0.984812 -0.116156 0.129047
vn 0.987272 0.156921 0.025859
vn 0.670255 -0.183022 0.719208
vn 0.201237 -0.435822 -0.877247
vn -0.935798 0.040679 0.350183
vn -0.907822 0.072296 -0.413077
vn -0.302860 -0.439304 0.845747
vn 0.104149 -0.208983 0.972358
vn -0.047332 0.124193 -0.991129
usemtl hand.png
s off
f 29/1/1 6/2/1 1/3/1
f 41/4/2 58/5/2 8/6/2
f 49/7/3 38/8/3 5/9/3
f 34/10/4 5/11/4 31/12/4
f 41/4/5 8/6/5 54/13/5
f 47/14/6 11/15/6 14/16/6
f 53/17/7 39/18/7 20/19/7
f 53/17/8 18/20/8 39/18/8
f 28/21/9 47/14/9 30/22/9
f 26/23/10 36/24/10 27/25/10
f 6/2/11 29/1/11 52/26/11
f 15/27/12 59/28/12 31/12/12
f 39/29/13 25/30/13 20/31/13
f 12/32/14 32/33/14 43/34/14
f 10/35/15 44/36/15 17/37/15
f 58/38/16 28/21/16 36/24/16
f 3/39/17 20/40/17 48/41/17
f 35/42/18 56/43/18 55/44/18
f 44/36/19 13/45/19 14/16/19
f 48/41/20 34/10/20 9/46/20
f 48/41/21 20/40/21 5/11/21
f 19/47/22 11/15/22 24/48/22
f 47/14/23 13/45/23 23/49/23
f 27/50/24 35/51/24 12/32/24
f 19/47/25 17/37/25 14/16/25
f 22/52/26 30/53/26 59/54/26
f 55/55/27 37/56/27 38/57/27
f 4/58/28 13/45/28 44/36/28
f 33/59/29 13/60/29 4/61/29
f 23/62/30 33/63/30 29/1/30
f 39/64/31 26/65/31 16/66/31
f 60/67/32 21/68/32 17/69/32
f 61/70/33 60/71/33 2/72/33
f 41/4/34 24/73/34 58/5/34
f 57/74/35 36/24/35 26/23/35
f 22/52/36 59/54/36 15/75/36
f 50/76/37 38/77/37 49/78/37
f 16/79/38 27/80/38 12/81/38
f 36/24/39 28/21/39 56/43/39
f 19/47/40 14/16/40 11/15/40
f 32/82/41 35/83/41 38/77/41
f 35/84/42 55/55/42 38/57/42
f 50/76/43 43/85/43 38/77/43
f 51/86/44 45/87/44 44/36/44
f 45/87/45 4/58/45 44/36/45
f 51/86/46 42/88/46 45/87/46
f 6/89/47 9/46/47 31/12/47
f 5/9/48 20/90/48 49/7/48
f 25/30/49 49/91/49 20/31/49
f 3/39/50 53/92/50 20/40/50
f 60/71/51 17/93/51 2/72/51
f 38/94/52 37/95/52 5/96/52
f 37/97/53 22/52/53 15/75/53
f 59/98/54 47/99/54 1/100/54
f 7/101/55 63/102/55 60/103/55
f 62/104/56 63/105/56 7/106/56
f 63/102/57 3/39/57 9/46/57
f 63/102/58 54/107/58 3/39/58
f 46/96/59 17/108/59 19/109/59
f 60/110/60 52/111/60 51/112/60
f 6/2/61 59/113/61 1/3/61
f 41/4/62 62/104/62 46/114/62
f 15/27/63 31/12/63 5/11/63
f 16/66/64 26/65/64 27/115/64
f 21/116/65 51/117/65 40/118/65
f 6/89/66 63/102/66 9/46/66
f 25/30/67 50/119/67 49/91/67
f 21/68/68 40/120/68 10/121/68
f 55/44/69 22/122/69 37/123/69
f 56/43/70 28/21/70 30/22/70
f 57/74/71 58/38/71 36/24/71
f 24/48/72 11/15/72 28/21/72
f 59/54/73 30/53/73 47/124/73
f 63/125/74 62/85/74 41/126/74
f 33/59/75 23/127/75 13/60/75
f 58/38/76 24/48/76 28/21/76
f 62/104/77 7/106/77 46/114/77
f 14/16/78 13/45/78 47/14/78
f 34/10/79 48/41/79 5/11/79
f 25/30/80 12/128/80 43/129/80
f 39/130/81 18/131/81 26/23/81
f 17/69/82 21/68/82 10/121/82
f 55/44/83 56/43/83 22/122/83
f 22/122/84 56/43/84 30/22/84
f 9/46/85 3/39/85 48/41/85
f 12/32/86 35/51/86 32/33/86
f 14/16/87 17/37/87 44/36/87
f 45/132/88 33/59/88 4/61/88
f 24/73/89 46/114/89 19/133/89
f 46/134/90 2/135/90 17/136/90
f 1/3/91 23/62/91 29/1/91
f 9/46/92 34/10/92 31/12/92
f 52/26/93 29/1/93 51/137/93
f 41/4/94 46/114/94 24/73/94
f 39/29/95 16/138/95 25/30/95
f 40/139/96 44/36/96 10/35/96
f 40/140/97 51/141/97 44/142/97
f 60/110/98 51/112/98 21/143/98
f 42/144/99 29/1/99 33/63/99
f 8/6/100 58/5/100 57/145/100
f 7/106/101 2/146/101 46/114/101
f 7/106/102 61/147/102 2/146/102
f 38/77/103 43/85/103 32/82/103
f 25/30/104 43/129/104 50/119/104
f 42/148/105 33/59/105 45/132/105
f 31/149/106 59/150/106 6/8/106
f 54/107/107 53/92/107 3/39/107
f 16/138/108 12/128/108 25/30/108
f 26/23/109 18/131/109 57/74/109
f 61/151/110 7/101/110 60/103/110
f 27/25/111 36/24/111 56/43/111
f 51/137/112 29/1/112 42/144/112
f 18/152/113 8/6/113 57/145/113
f 54/13/114 8/6/114 18/152/114
f 53/153/115 54/13/115 18/152/115
f 54/13/116 63/105/116 41/4/116
f 28/21/117 11/15/117 47/14/117
f 5/154/118 37/97/118 15/75/118
f 1/155/119 47/156/119 23/157/119
f 60/110/120 6/158/120 52/111/120
f 60/103/121 63/102/121 6/89/121
f 35/42/122 27/25/122 56/43/122
